<svg width="200" height="252" viewBox="0 0 200 252" fill="none" xmlns="http://www.w3.org/2000/svg">
<path d="M1.41421 100L100 1.41421L198.586 100L100 198.586L1.41421 100Z" stroke="#7C7C7C" stroke-width="2"/>
<path d="M1.41421 152L100 53.4142L198.586 152L100 250.586L1.41421 152Z" stroke="#7C7C7C" stroke-width="2"/>
<path d="M1.41421 127L100 28.4142L198.586 127L100 225.586L1.41421 127Z" stroke="#7C7C7C" stroke-width="2"/>
<path d="M52.5415 125.8C52.4748 125.887 52.4115 125.953 52.3515 126C52.2915 126.047 52.2048 126.07 52.0915 126.07C51.9782 126.07 51.8582 126.03 51.7315 125.95C51.6115 125.87 51.4648 125.783 51.2915 125.69C51.1248 125.59 50.9215 125.5 50.6815 125.42C50.4415 125.34 50.1415 125.3 49.7815 125.3C49.3148 125.3 48.9048 125.383 48.5515 125.55C48.2048 125.717 47.9115 125.957 47.6715 126.27C47.4382 126.577 47.2615 126.953 47.1415 127.4C47.0282 127.84 46.9715 128.337 46.9715 128.89C46.9715 129.463 47.0348 129.973 47.1615 130.42C47.2882 130.867 47.4682 131.243 47.7015 131.55C47.9415 131.857 48.2282 132.09 48.5615 132.25C48.9015 132.41 49.2815 132.49 49.7015 132.49C50.1148 132.49 50.4515 132.44 50.7115 132.34C50.9715 132.24 51.1882 132.13 51.3615 132.01C51.5348 131.89 51.6815 131.78 51.8015 131.68C51.9282 131.58 52.0615 131.53 52.2015 131.53C52.3748 131.53 52.5082 131.597 52.6015 131.73L53.2115 132.52C52.9648 132.82 52.6915 133.073 52.3915 133.28C52.0915 133.487 51.7748 133.657 51.4415 133.79C51.1082 133.917 50.7615 134.007 50.4015 134.06C50.0415 134.12 49.6782 134.15 49.3115 134.15C48.6782 134.15 48.0848 134.033 47.5315 133.8C46.9848 133.56 46.5048 133.217 46.0915 132.77C45.6848 132.317 45.3615 131.767 45.1215 131.12C44.8882 130.467 44.7715 129.723 44.7715 128.89C44.7715 128.137 44.8782 127.44 45.0915 126.8C45.3048 126.153 45.6148 125.597 46.0215 125.13C46.4348 124.663 46.9448 124.3 47.5515 124.04C48.1582 123.773 48.8582 123.64 49.6515 123.64C50.3915 123.64 51.0415 123.76 51.6015 124C52.1682 124.24 52.6715 124.58 53.1115 125.02L52.5415 125.8ZM59.1751 123.64C59.9284 123.64 60.6084 123.763 61.2151 124.01C61.8284 124.257 62.3484 124.607 62.7751 125.06C63.2084 125.513 63.5417 126.063 63.7751 126.71C64.0084 127.357 64.1251 128.083 64.1251 128.89C64.1251 129.697 64.0084 130.423 63.7751 131.07C63.5417 131.717 63.2084 132.27 62.7751 132.73C62.3484 133.183 61.8284 133.533 61.2151 133.78C60.6084 134.027 59.9284 134.15 59.1751 134.15C58.4151 134.15 57.7284 134.027 57.1151 133.78C56.5084 133.533 55.9884 133.183 55.5551 132.73C55.1217 132.27 54.7884 131.717 54.5551 131.07C54.3217 130.423 54.2051 129.697 54.2051 128.89C54.2051 128.083 54.3217 127.357 54.5551 126.71C54.7884 126.063 55.1217 125.513 55.5551 125.06C55.9884 124.607 56.5084 124.257 57.1151 124.01C57.7284 123.763 58.4151 123.64 59.1751 123.64ZM59.1751 132.47C60.0951 132.47 60.7784 132.163 61.2251 131.55C61.6784 130.93 61.9051 130.047 61.9051 128.9C61.9051 127.753 61.6784 126.87 61.2251 126.25C60.7784 125.623 60.0951 125.31 59.1751 125.31C58.2417 125.31 57.5484 125.623 57.0951 126.25C56.6417 126.87 56.4151 127.753 56.4151 128.9C56.4151 130.047 56.6417 130.93 57.0951 131.55C57.5484 132.163 58.2417 132.47 59.1751 132.47ZM72.7009 126.31C72.4009 125.923 72.0709 125.653 71.7109 125.5C71.3509 125.347 70.9609 125.27 70.5409 125.27C69.7009 125.27 69.0442 125.58 68.5709 126.2C68.0975 126.813 67.8609 127.723 67.8609 128.93C67.8609 129.557 67.9142 130.093 68.0209 130.54C68.1275 130.98 68.2809 131.34 68.4809 131.62C68.6809 131.9 68.9242 132.103 69.2109 132.23C69.4975 132.357 69.8209 132.42 70.1809 132.42C70.7275 132.42 71.1975 132.303 71.5909 132.07C71.9909 131.83 72.3609 131.493 72.7009 131.06V126.31ZM74.8509 119.2V134H73.5509C73.2642 134 73.0809 133.863 73.0009 133.59L72.8109 132.48C72.3842 132.98 71.8975 133.383 71.3509 133.69C70.8109 133.997 70.1809 134.15 69.4609 134.15C68.8875 134.15 68.3675 134.037 67.9009 133.81C67.4342 133.577 67.0342 133.24 66.7009 132.8C66.3675 132.36 66.1075 131.817 65.9209 131.17C65.7409 130.517 65.6509 129.77 65.6509 128.93C65.6509 128.17 65.7509 127.467 65.9509 126.82C66.1575 126.173 66.4509 125.613 66.8309 125.14C67.2109 124.66 67.6709 124.287 68.2109 124.02C68.7575 123.747 69.3675 123.61 70.0409 123.61C70.6409 123.61 71.1509 123.707 71.5709 123.9C71.9909 124.087 72.3675 124.35 72.7009 124.69V119.2H74.8509ZM82.9299 129.54C82.1633 129.567 81.5166 129.63 80.9899 129.73C80.4633 129.823 80.0366 129.947 79.7099 130.1C79.3833 130.247 79.1466 130.423 78.9999 130.63C78.8599 130.837 78.7899 131.063 78.7899 131.31C78.7899 131.55 78.8266 131.757 78.8999 131.93C78.9799 132.097 79.0866 132.237 79.2199 132.35C79.3599 132.457 79.5199 132.537 79.6999 132.59C79.8866 132.637 80.0899 132.66 80.3099 132.66C80.8699 132.66 81.3499 132.557 81.7499 132.35C82.1566 132.137 82.5499 131.83 82.9299 131.43V129.54ZM77.2299 125.22C78.3833 124.147 79.7566 123.61 81.3499 123.61C81.9366 123.61 82.4566 123.707 82.9099 123.9C83.3699 124.087 83.7533 124.353 84.0599 124.7C84.3733 125.047 84.6099 125.46 84.7699 125.94C84.9366 126.413 85.0199 126.94 85.0199 127.52V134H84.0599C83.8533 134 83.6966 133.97 83.5899 133.91C83.4833 133.843 83.3933 133.713 83.3199 133.52L83.1099 132.69C82.8499 132.923 82.5933 133.133 82.3399 133.32C82.0866 133.5 81.8233 133.653 81.5499 133.78C81.2833 133.907 80.9933 134 80.6799 134.06C80.3733 134.127 80.0333 134.16 79.6599 134.16C79.2466 134.16 78.8599 134.103 78.4999 133.99C78.1466 133.877 77.8399 133.707 77.5799 133.48C77.3199 133.247 77.1133 132.96 76.9599 132.62C76.8133 132.28 76.7399 131.88 76.7399 131.42C76.7399 131.027 76.8433 130.643 77.0499 130.27C77.2633 129.897 77.6099 129.563 78.0899 129.27C78.5766 128.97 79.2133 128.723 79.9999 128.53C80.7933 128.337 81.7699 128.227 82.9299 128.2V127.52C82.9299 126.787 82.7733 126.24 82.4599 125.88C82.1466 125.52 81.6866 125.34 81.0799 125.34C80.6666 125.34 80.3199 125.393 80.0399 125.5C79.7599 125.6 79.5166 125.71 79.3099 125.83C79.1033 125.95 78.9199 126.063 78.7599 126.17C78.5999 126.27 78.4299 126.32 78.2499 126.32C78.1033 126.32 77.9766 126.283 77.8699 126.21C77.7699 126.13 77.6866 126.033 77.6199 125.92L77.2299 125.22ZM96.2841 123.8L92.1841 134H90.2441L86.1441 123.8H87.9141C88.0808 123.8 88.2175 123.843 88.3241 123.93C88.4375 124.01 88.5108 124.107 88.5441 124.22L90.8041 130.16C90.8975 130.44 90.9808 130.717 91.0541 130.99C91.1275 131.263 91.1908 131.54 91.2441 131.82C91.2975 131.54 91.3608 131.267 91.4341 131C91.5141 130.727 91.6008 130.447 91.6941 130.16L93.9941 124.22C94.0341 124.1 94.1075 124 94.2141 123.92C94.3208 123.84 94.4508 123.8 94.6041 123.8H96.2841ZM104.15 127.75C104.15 127.39 104.097 127.057 103.99 126.75C103.89 126.437 103.74 126.167 103.54 125.94C103.34 125.707 103.09 125.527 102.79 125.4C102.497 125.267 102.157 125.2 101.77 125.2C100.99 125.2 100.377 125.423 99.9304 125.87C99.4837 126.317 99.2004 126.943 99.0804 127.75H104.15ZM99.0204 129.07C99.0471 129.65 99.1371 130.153 99.2904 130.58C99.4437 131 99.6471 131.35 99.9004 131.63C100.16 131.91 100.467 132.12 100.82 132.26C101.18 132.393 101.58 132.46 102.02 132.46C102.44 132.46 102.804 132.413 103.11 132.32C103.417 132.22 103.684 132.113 103.91 132C104.137 131.88 104.33 131.773 104.49 131.68C104.65 131.58 104.797 131.53 104.93 131.53C105.104 131.53 105.237 131.597 105.33 131.73L105.94 132.52C105.687 132.82 105.4 133.073 105.08 133.28C104.76 133.487 104.42 133.657 104.06 133.79C103.7 133.917 103.33 134.007 102.95 134.06C102.57 134.12 102.2 134.15 101.84 134.15C101.134 134.15 100.477 134.033 99.8704 133.8C99.2704 133.56 98.7471 133.21 98.3004 132.75C97.8604 132.29 97.5137 131.72 97.2604 131.04C97.0137 130.36 96.8904 129.577 96.8904 128.69C96.8904 127.983 97.0004 127.323 97.2204 126.71C97.4471 126.097 97.7671 125.563 98.1804 125.11C98.6004 124.657 99.1071 124.3 99.7004 124.04C100.3 123.773 100.977 123.64 101.73 123.64C102.357 123.64 102.937 123.743 103.47 123.95C104.004 124.15 104.464 124.447 104.85 124.84C105.237 125.233 105.537 125.717 105.75 126.29C105.97 126.857 106.08 127.503 106.08 128.23C106.08 128.563 106.044 128.787 105.97 128.9C105.897 129.013 105.764 129.07 105.57 129.07H99.0204ZM110.095 125.15C110.315 124.923 110.542 124.72 110.775 124.54C111.015 124.353 111.269 124.193 111.535 124.06C111.802 123.927 112.085 123.823 112.385 123.75C112.685 123.677 113.012 123.64 113.365 123.64C113.925 123.64 114.415 123.733 114.835 123.92C115.262 124.107 115.619 124.37 115.905 124.71C116.199 125.05 116.419 125.46 116.565 125.94C116.712 126.413 116.785 126.937 116.785 127.51V134H114.645V127.51C114.645 126.823 114.485 126.29 114.165 125.91C113.852 125.53 113.372 125.34 112.725 125.34C112.245 125.34 111.799 125.45 111.385 125.67C110.979 125.89 110.595 126.19 110.235 126.57V134H108.085V123.8H109.385C109.679 123.8 109.865 123.937 109.945 124.21L110.095 125.15ZM122.936 128.81C123.603 128.81 124.103 128.64 124.436 128.3C124.77 127.96 124.936 127.517 124.936 126.97C124.936 126.41 124.77 125.967 124.436 125.64C124.103 125.313 123.603 125.15 122.936 125.15C122.276 125.15 121.776 125.313 121.436 125.64C121.103 125.967 120.936 126.41 120.936 126.97C120.936 127.237 120.98 127.483 121.066 127.71C121.153 127.937 121.28 128.133 121.446 128.3C121.613 128.46 121.82 128.587 122.066 128.68C122.32 128.767 122.61 128.81 122.936 128.81ZM125.926 134.5C125.926 134.273 125.86 134.093 125.726 133.96C125.6 133.82 125.426 133.713 125.206 133.64C124.986 133.56 124.73 133.503 124.436 133.47C124.143 133.43 123.83 133.403 123.496 133.39C123.17 133.37 122.833 133.353 122.486 133.34C122.146 133.32 121.816 133.287 121.496 133.24C121.176 133.407 120.913 133.607 120.706 133.84C120.506 134.073 120.406 134.343 120.406 134.65C120.406 134.85 120.456 135.037 120.556 135.21C120.663 135.383 120.823 135.533 121.036 135.66C121.256 135.787 121.533 135.887 121.866 135.96C122.206 136.033 122.613 136.07 123.086 136.07C124.033 136.07 124.743 135.923 125.216 135.63C125.69 135.337 125.926 134.96 125.926 134.5ZM128.086 124.17V124.97C128.086 125.237 127.926 125.4 127.606 125.46L126.586 125.63C126.76 126.017 126.846 126.447 126.846 126.92C126.846 127.42 126.746 127.873 126.546 128.28C126.353 128.687 126.083 129.033 125.736 129.32C125.39 129.607 124.976 129.827 124.496 129.98C124.016 130.133 123.496 130.21 122.936 130.21C122.723 130.21 122.513 130.2 122.306 130.18C122.106 130.153 121.91 130.12 121.716 130.08C121.523 130.193 121.38 130.313 121.286 130.44C121.193 130.567 121.146 130.697 121.146 130.83C121.146 131.05 121.243 131.213 121.436 131.32C121.63 131.427 121.883 131.503 122.196 131.55C122.516 131.597 122.88 131.627 123.286 131.64C123.693 131.653 124.106 131.677 124.526 131.71C124.946 131.743 125.36 131.8 125.766 131.88C126.173 131.953 126.533 132.08 126.846 132.26C127.166 132.433 127.423 132.67 127.616 132.97C127.81 133.27 127.906 133.66 127.906 134.14C127.906 134.58 127.796 135.01 127.576 135.43C127.356 135.85 127.036 136.223 126.616 136.55C126.203 136.877 125.696 137.137 125.096 137.33C124.496 137.53 123.813 137.63 123.046 137.63C122.286 137.63 121.623 137.557 121.056 137.41C120.496 137.263 120.026 137.063 119.646 136.81C119.273 136.563 118.993 136.277 118.806 135.95C118.626 135.623 118.536 135.283 118.536 134.93C118.536 134.45 118.686 134.04 118.986 133.7C119.293 133.36 119.706 133.093 120.226 132.9C119.946 132.767 119.72 132.583 119.546 132.35C119.38 132.117 119.296 131.81 119.296 131.43C119.296 131.13 119.406 130.817 119.626 130.49C119.846 130.163 120.176 129.887 120.616 129.66C120.11 129.38 119.71 129.01 119.416 128.55C119.123 128.083 118.976 127.54 118.976 126.92C118.976 126.413 119.073 125.957 119.266 125.55C119.466 125.143 119.743 124.797 120.096 124.51C120.45 124.223 120.866 124.003 121.346 123.85C121.833 123.697 122.363 123.62 122.936 123.62C123.816 123.62 124.583 123.803 125.236 124.17H128.086ZM136.299 127.75C136.299 127.39 136.245 127.057 136.139 126.75C136.039 126.437 135.889 126.167 135.689 125.94C135.489 125.707 135.239 125.527 134.939 125.4C134.645 125.267 134.305 125.2 133.919 125.2C133.139 125.2 132.525 125.423 132.079 125.87C131.632 126.317 131.349 126.943 131.229 127.75H136.299ZM131.169 129.07C131.195 129.65 131.285 130.153 131.439 130.58C131.592 131 131.795 131.35 132.049 131.63C132.309 131.91 132.615 132.12 132.969 132.26C133.329 132.393 133.729 132.46 134.169 132.46C134.589 132.46 134.952 132.413 135.259 132.32C135.565 132.22 135.832 132.113 136.059 132C136.285 131.88 136.479 131.773 136.639 131.68C136.799 131.58 136.945 131.53 137.079 131.53C137.252 131.53 137.385 131.597 137.479 131.73L138.089 132.52C137.835 132.82 137.549 133.073 137.229 133.28C136.909 133.487 136.569 133.657 136.209 133.79C135.849 133.917 135.479 134.007 135.099 134.06C134.719 134.12 134.349 134.15 133.989 134.15C133.282 134.15 132.625 134.033 132.019 133.8C131.419 133.56 130.895 133.21 130.449 132.75C130.009 132.29 129.662 131.72 129.409 131.04C129.162 130.36 129.039 129.577 129.039 128.69C129.039 127.983 129.149 127.323 129.369 126.71C129.595 126.097 129.915 125.563 130.329 125.11C130.749 124.657 131.255 124.3 131.849 124.04C132.449 123.773 133.125 123.64 133.879 123.64C134.505 123.64 135.085 123.743 135.619 123.95C136.152 124.15 136.612 124.447 136.999 124.84C137.385 125.233 137.685 125.717 137.899 126.29C138.119 126.857 138.229 127.503 138.229 128.23C138.229 128.563 138.192 128.787 138.119 128.9C138.045 129.013 137.912 129.07 137.719 129.07H131.169ZM142.264 125.69C142.584 125.043 142.97 124.537 143.424 124.17C143.877 123.797 144.42 123.61 145.054 123.61C145.274 123.61 145.48 123.637 145.674 123.69C145.867 123.737 146.04 123.81 146.194 123.91L146.044 125.53C146.017 125.643 145.974 125.723 145.914 125.77C145.86 125.81 145.787 125.83 145.694 125.83C145.594 125.83 145.45 125.813 145.264 125.78C145.077 125.74 144.88 125.72 144.674 125.72C144.374 125.72 144.107 125.763 143.874 125.85C143.647 125.937 143.44 126.063 143.254 126.23C143.074 126.397 142.914 126.6 142.774 126.84C142.634 127.08 142.504 127.353 142.384 127.66V134H140.234V123.8H141.484C141.71 123.8 141.867 123.843 141.954 123.93C142.04 124.01 142.1 124.153 142.134 124.36L142.264 125.69ZM153.648 125.65C153.595 125.743 153.535 125.81 153.468 125.85C153.401 125.89 153.318 125.91 153.218 125.91C153.105 125.91 152.981 125.877 152.848 125.81C152.715 125.737 152.558 125.657 152.378 125.57C152.198 125.483 151.985 125.407 151.738 125.34C151.498 125.267 151.215 125.23 150.888 125.23C150.621 125.23 150.378 125.263 150.158 125.33C149.945 125.39 149.761 125.48 149.608 125.6C149.461 125.713 149.348 125.85 149.268 126.01C149.188 126.163 149.148 126.33 149.148 126.51C149.148 126.75 149.221 126.95 149.368 127.11C149.515 127.27 149.708 127.41 149.948 127.53C150.188 127.643 150.461 127.747 150.768 127.84C151.075 127.933 151.388 128.033 151.708 128.14C152.028 128.247 152.341 128.37 152.648 128.51C152.955 128.65 153.228 128.823 153.468 129.03C153.708 129.23 153.901 129.477 154.048 129.77C154.195 130.057 154.268 130.407 154.268 130.82C154.268 131.3 154.181 131.743 154.008 132.15C153.835 132.557 153.581 132.91 153.248 133.21C152.915 133.51 152.498 133.743 151.998 133.91C151.505 134.077 150.938 134.16 150.298 134.16C149.945 134.16 149.601 134.127 149.268 134.06C148.941 134 148.628 133.917 148.328 133.81C148.035 133.697 147.758 133.563 147.498 133.41C147.245 133.257 147.018 133.09 146.818 132.91L147.318 132.09C147.378 131.99 147.451 131.913 147.538 131.86C147.631 131.8 147.745 131.77 147.878 131.77C148.018 131.77 148.155 131.817 148.288 131.91C148.428 131.997 148.588 132.093 148.768 132.2C148.955 132.307 149.178 132.407 149.438 132.5C149.698 132.587 150.021 132.63 150.408 132.63C150.728 132.63 151.005 132.593 151.238 132.52C151.471 132.44 151.665 132.333 151.818 132.2C151.971 132.067 152.085 131.917 152.158 131.75C152.231 131.577 152.268 131.393 152.268 131.2C152.268 130.94 152.195 130.727 152.048 130.56C151.901 130.393 151.705 130.25 151.458 130.13C151.218 130.01 150.941 129.903 150.628 129.81C150.321 129.717 150.008 129.617 149.688 129.51C149.368 129.403 149.051 129.28 148.738 129.14C148.431 129 148.155 128.823 147.908 128.61C147.668 128.39 147.475 128.127 147.328 127.82C147.181 127.507 147.108 127.127 147.108 126.68C147.108 126.273 147.188 125.887 147.348 125.52C147.515 125.153 147.755 124.83 148.068 124.55C148.388 124.27 148.778 124.05 149.238 123.89C149.705 123.723 150.241 123.64 150.848 123.64C151.535 123.64 152.158 123.75 152.718 123.97C153.278 124.19 153.748 124.49 154.128 124.87L153.648 125.65Z" fill="#7C7C7C"/>
</svg>
